<svg aria-hidden="true" style="position:absolute;width:0;height:0" xmlns="http://www.w3.org/2000/svg" overflow="hidden"><defs><symbol id="facebook" viewBox="0 0 32 32"><path d="M27.313 0H4.688A4.694 4.694 0 0 0 0 4.688v22.625a4.694 4.694 0 0 0 4.688 4.688h9.438V20.688h-3.75v-5.625h3.75V11.25a5.63 5.63 0 0 1 5.625-5.625h5.688v5.625h-5.688v3.813h5.688l-.938 5.625h-4.75v11.313h7.563a4.694 4.694 0 0 0 4.688-4.688V4.688A4.694 4.694 0 0 0 27.314 0z"/></symbol><symbol id="instagram" viewBox="0 0 32 32"><path d="M27.938 31.754H4.307a3.939 3.939 0 0 1-3.938-3.94V4.184A3.94 3.94 0 0 1 4.307.244h23.631a3.939 3.939 0 0 1 3.938 3.94v23.63a3.94 3.94 0 0 1-3.938 3.94zM16.123 9.894a6.1 6.1 0 0 0-5.536 3.545h-.006c-.01.022-.017.046-.027.068-.058.129-.108.262-.158.395-.023.065-.049.128-.07.192a5.51 5.51 0 0 0-.117.418c-.017.065-.037.13-.052.197a6.11 6.11 0 0 0-.075.453c-.009.062-.021.122-.028.185a6.104 6.104 0 0 0 6.069 6.757 6.104 6.104 0 0 0 6.069-6.757c-.007-.063-.02-.123-.028-.185a6.11 6.11 0 0 0-.075-.453c-.015-.066-.034-.132-.052-.197a4.87 4.87 0 0 0-.117-.418c-.021-.064-.047-.127-.07-.192a6.132 6.132 0 0 0-.158-.395c-.01-.022-.017-.046-.027-.068h-.006a6.1 6.1 0 0 0-5.536-3.545zm12.209-4.529c0-.87-.705-1.574-1.575-1.574h-3.151c-.87 0-1.575.704-1.575 1.574v3.152c0 .87.705 1.575 1.575 1.575h3.151c.87 0 1.575-.705 1.575-1.575V5.365zm0 8.074h-2.905c.224.816.345 1.675.345 2.561 0 5.329-4.32 9.648-9.649 9.648S6.474 21.329 6.474 16c0-.886.121-1.745.345-2.561H3.914v13.194c0 .871.705 1.577 1.575 1.577h21.268c.87 0 1.575-.705 1.575-1.577V13.439z"/></symbol><symbol id="pinterest" viewBox="0 0 32 32"><path d="M7.684 17.389c.04-.1.441-1.639.469-1.744-.625-.941-1.32-4.023-.787-6.525.575-3.671 4.465-5.475 8.137-5.475v-.007c4.598.003 8.04 2.561 8.044 6.967.003 3.449-2.075 8.007-5.622 8.007h-.003c-1.266 0-2.869-.574-3.29-1.138-.485-.65-.604-1.452-.348-2.309.628-2.005 1.429-4.407 1.523-6.009.087-1.511-.986-2.495-2.377-2.495-1.047 0-2.406.608-3.083 2.316-.56 1.419-.548 2.905.037 4.542.228.64-1.01 4.812-1.406 6.17-.985 3.375-2.334 7.644-2.045 10.022l.278 2.288 1.398-1.832c1.935-2.532 3.935-9.083 4.468-10.677 1.576 2.041 4.857 2.099 5.24 2.099 4.699 0 10.027-4.666 9.876-11.16-.133-5.695-4.301-10.43-11.79-10.43v.007C9.279.006 5.122 3.808 4.104 8.612c-.932 4.455 1.141 7.845 3.581 8.775z"/></symbol><symbol id="twitter" viewBox="0 0 32 32"><path d="M11.938 29.128a27.41 27.41 0 0 1-4.241-.337c-2.524-.396-5.078-1.716-5.801-2.111L0 25.643l2.053-.675c2.244-.738 3.609-1.196 5.299-1.912-1.692-.819-2.996-2.293-3.624-4.198l-.478-1.45.392.06a7.089 7.089 0 0 1-.892-1.1c-.808-1.228-1.236-2.728-1.145-4.014l.09-1.265.758.293a7.046 7.046 0 0 1-.686-1.924c-.331-1.647-.054-3.398.78-4.928l.66-1.211.883 1.06c2.791 3.353 6.327 5.342 10.523 5.924-.171-1.181-.043-2.322.382-3.344.495-1.19 1.375-2.199 2.545-2.918a7.641 7.641 0 0 1 4.437-1.09c1.657.102 3.161.723 4.356 1.797.584-.152 1.013-.313 1.594-.532.35-.132.746-.281 1.242-.452l1.828-.63-1.192 3.405c.079-.007.16-.012.244-.016l1.952-.088-1.154 1.577c-.066.09-.083.116-.106.151-.093.14-.209.314-1.792 2.429-.396.53-.594 1.219-.558 1.942.14 2.748-.197 5.234-1.003 7.39-.762 2.039-1.943 3.789-3.51 5.2-1.939 1.746-4.411 2.942-7.349 3.553-1.441.3-2.988.45-4.59.45z"/></symbol></defs></svg>