<svg aria-hidden="true" style="position: absolute; width: 0; height: 0; overflow: hidden;" version="1.1" xmlns="http://www.w3.org/2000/svg" xmlns:xlink="http://www.w3.org/1999/xlink">
<defs>
<symbol id="facebook" viewBox="0 0 32 32">
    <title>facebook</title>
    <path d="M27.313 0h-22.625c-2.584 0-4.688 2.103-4.688 4.688v22.625c0 2.584 2.103 4.688 4.688 4.688h9.438v-11.313h-3.75v-5.625h3.75v-3.813c0-3.102 2.523-5.625 5.625-5.625h5.688v5.625h-5.688v3.813h5.688l-0.938 5.625h-4.75v11.313h7.563c2.584 0 4.688-2.103 4.688-4.688v-22.625c0-2.584-2.103-4.688-4.688-4.688z"></path>
</symbol>
<symbol id="instagram" viewBox="0 0 32 32">
    <title>instagram</title>
    <path d="M27.938 31.754h-23.631c-2.175 0-3.938-1.764-3.938-3.94v-23.63c0-2.176 1.764-3.94 3.938-3.94h23.631c2.175 0 3.938 1.764 3.938 3.94v23.63c0 2.176-1.764 3.94-3.938 3.94zM16.123 9.894c-2.457 0-4.567 1.455-5.536 3.545h-0.006c-0.010 0.022-0.017 0.046-0.027 0.068-0.058 0.129-0.108 0.262-0.158 0.395-0.023 0.065-0.049 0.128-0.070 0.192-0.046 0.138-0.082 0.277-0.117 0.418-0.017 0.065-0.037 0.13-0.052 0.197-0.032 0.149-0.054 0.3-0.075 0.453-0.009 0.062-0.021 0.122-0.028 0.185-0.022 0.214-0.036 0.432-0.036 0.654 0 3.371 2.734 6.103 6.105 6.103s6.105-2.732 6.105-6.103c0-0.222-0.014-0.439-0.036-0.654-0.007-0.063-0.020-0.123-0.028-0.185-0.021-0.153-0.043-0.304-0.075-0.453-0.015-0.066-0.034-0.132-0.052-0.197-0.034-0.142-0.071-0.281-0.117-0.418-0.021-0.064-0.047-0.127-0.070-0.192-0.049-0.133-0.1-0.266-0.158-0.395-0.010-0.022-0.017-0.046-0.027-0.068h-0.006c-0.969-2.090-3.079-3.545-5.536-3.545zM28.332 5.365c0-0.87-0.705-1.574-1.575-1.574h-3.151c-0.87 0-1.575 0.704-1.575 1.574v3.152c0 0.87 0.705 1.575 1.575 1.575h3.151c0.87 0 1.575-0.705 1.575-1.575v-3.152zM28.332 13.439h-2.905c0.224 0.816 0.345 1.675 0.345 2.561 0 5.329-4.32 9.648-9.649 9.648s-9.649-4.319-9.649-9.648c0-0.886 0.121-1.745 0.345-2.561h-2.905v13.194c0 0.871 0.705 1.577 1.575 1.577h21.268c0.87 0 1.575-0.705 1.575-1.577v-13.194z"></path>
</symbol>
<symbol id="pinterest" viewBox="0 0 32 32">
    <title>pinterest</title>
    <path d="M7.684 17.389c0.040-0.1 0.441-1.639 0.469-1.744-0.625-0.941-1.32-4.023-0.787-6.525 0.575-3.671 4.465-5.475 8.137-5.475v-0.007c4.598 0.003 8.040 2.561 8.044 6.967 0.003 3.449-2.075 8.007-5.622 8.007-0.001 0-0.002 0-0.003 0-1.266 0-2.869-0.574-3.29-1.138-0.485-0.65-0.604-1.452-0.348-2.309 0.628-2.005 1.429-4.407 1.523-6.009 0.087-1.511-0.986-2.495-2.377-2.495-1.047 0-2.406 0.608-3.083 2.316-0.56 1.419-0.548 2.905 0.037 4.542 0.228 0.64-1.010 4.812-1.406 6.17-0.985 3.375-2.334 7.644-2.045 10.022l0.278 2.288 1.398-1.832c1.935-2.532 3.935-9.083 4.468-10.677 1.576 2.041 4.857 2.099 5.24 2.099 4.699 0 10.027-4.666 9.876-11.16-0.133-5.695-4.301-10.43-11.79-10.43v0.007c-7.124 0-11.281 3.802-12.299 8.606-0.932 4.455 1.141 7.845 3.581 8.775z"></path>
</symbol>
<symbol id="twitter" viewBox="0 0 32 32">
    <title>twitter</title>
    <path d="M11.938 29.128c-1.384 0-2.808-0.112-4.241-0.337-2.524-0.396-5.078-1.716-5.801-2.111l-1.896-1.037 2.053-0.675c2.244-0.738 3.609-1.196 5.299-1.912-1.692-0.819-2.996-2.293-3.624-4.198l-0.478-1.45 0.392 0.060c-0.371-0.374-0.665-0.754-0.892-1.1-0.808-1.228-1.236-2.728-1.145-4.014l0.090-1.265 0.758 0.293c-0.32-0.604-0.551-1.248-0.686-1.924-0.331-1.647-0.054-3.398 0.78-4.928l0.66-1.211 0.883 1.060c2.791 3.353 6.327 5.342 10.523 5.924-0.171-1.181-0.043-2.322 0.382-3.344 0.495-1.19 1.375-2.199 2.545-2.918 1.299-0.799 2.875-1.186 4.437-1.090 1.657 0.102 3.161 0.723 4.356 1.797 0.584-0.152 1.013-0.313 1.594-0.532 0.35-0.132 0.746-0.281 1.242-0.452l1.828-0.63-1.192 3.405c0.079-0.007 0.16-0.012 0.244-0.016l1.952-0.088-1.154 1.577c-0.066 0.090-0.083 0.116-0.106 0.151-0.093 0.14-0.209 0.314-1.792 2.429-0.396 0.53-0.594 1.219-0.558 1.942 0.14 2.748-0.197 5.234-1.003 7.39-0.762 2.039-1.943 3.789-3.51 5.2-1.939 1.746-4.411 2.942-7.349 3.553-1.441 0.3-2.988 0.45-4.59 0.45z"></path>
</symbol>
</defs>
</svg>
